<svg xmlns="http://www.w3.org/2000/svg" xmlns:xlink="http://www.w3.org/1999/xlink" viewBox="0 0 108 97.48"><defs><style>.cls-1{fill:#00000a;}.cls-2{fill:#39474f;}.cls-3{fill:#fff;}.cls-4{fill:#4274b9;}.cls-5{fill:#abddf3;}.cls-6{fill:#989898;}.cls-7{fill:#00aeef;}.cls-8{fill:url(#Orange_Yellow);}.cls-9{fill:url(#Orange_Yellow-2);}</style><linearGradient id="Orange_Yellow" x1="30.19" y1="65.29" x2="28.7" y2="48.18" gradientUnits="userSpaceOnUse"><stop offset="0" stop-color="#fff33b"/><stop offset="0.04" stop-color="#fee72e"/><stop offset="0.12" stop-color="#fed51b"/><stop offset="0.2" stop-color="#fdca10"/><stop offset="0.28" stop-color="#fdc70c"/><stop offset="0.67" stop-color="#f3903f"/><stop offset="0.89" stop-color="#ed683c"/><stop offset="1" stop-color="#e93e3a"/></linearGradient><linearGradient id="Orange_Yellow-2" x1="78.47" y1="61.08" x2="76.98" y2="43.96" xlink:href="#Orange_Yellow"/></defs><title>Asset 6</title><g id="Layer_2" data-name="Layer 2"><g id="Layer_1-2" data-name="Layer 1"><path class="cls-1" d="M36,10.49S22.13-2.34,8.45,8.56,9.73,40.85,9.73,40.85Z"/><path class="cls-2" d="M37,14.34s-7.1-6.19-12.79-5.26-11.5,2-12.55,5.26-3.95,2.88-3.83,6.94-.24,9,0,5.46c0,0-.92,4.3,4.31,12.67S35.63,27.79,35.63,27.79Z"/><path class="cls-1" d="M28.87,15.59c-3.95,4.62-18.08,18.27-23,26.72C1.75,49.26,1.73,54.05.59,59.42c-1,4.76-1,10.6,2.22,18.79a10.91,10.91,0,0,1,.65-3.84s-.07,8.17,3,10a6.09,6.09,0,0,1-.13-2.58S7,85,8.51,85.91a6.65,6.65,0,0,1-.61-3A41.58,41.58,0,0,0,19,91.94c8,4.16,21,6,34,5.44,14.66-.61,18.82-2,18.82-2s17.51-5.11,22.74-11,7.2-6.74,7.55-8.6c0,0,.7,3.26,0,3.49,0,0,1.59-.27,1.28-3.26a4.14,4.14,0,0,1,.92,3,17.87,17.87,0,0,0,.85-8.09c0-.19-.05-.39-.05-.39s.68-.29,1,0a.18.18,0,0,0,.3-.12,17.07,17.07,0,0,0-.12-3.22s1.06,0,1.62,1.72c0,0,.59-11.19-1.87-19a88.81,88.81,0,0,0-5.33-11.76,20.17,20.17,0,0,0-5.93-6.75c-6.39-4.3-20.44-22-28.4-23.88S58.49,5.6,55.1,5.6A60,60,0,0,0,44.62,6.94C40.34,8,33.34,10.36,28.87,15.59Z"/><path class="cls-1" d="M65.39,8.61S77.37-6,92.44,2.87,95.66,35,95.66,35Z"/><path class="cls-2" d="M67,10.15S74.06,4,79.75,4.9s11.5,2,12.55,5.25,4,2.88,3.83,7,.24,9,0,5.46c0,0,.92,4.3-4.31,12.66S68.29,23.61,68.29,23.61Z"/><path class="cls-3" d="M74.37,14.22a32.78,32.78,0,0,0-42.75,1.34C27,19.76,10.26,39.32,6.86,45.49A32.8,32.8,0,0,0,23.54,91.78c3.73,1.47,16.67,4.61,32.69,3.33s26-5.21,30.26-7.27a32.79,32.79,0,0,0,11.93-49.4C94.81,33.7,78.75,17.77,74.37,14.22Z"/><path class="cls-1" d="M46.62,42.6A131.52,131.52,0,0,1,43.72,59c-.67,2.05-3,8.62-9.16,11.34s-8.64,1.92-10.43,1.31A7.64,7.64,0,0,1,19.2,65.7c-.72-3.52-.49-12.56,2.28-18s4.81-9.8,11.31-12.94,10.13-1.66,10.13-1.66S47.45,35,46.62,42.6Z"/><path class="cls-1" d="M59,40.94c1.42,5.49,3.78,14,4.68,16s4,8.24,10.36,10.27,8.88,1,10.5.15a7.42,7.42,0,0,0,4.25-6.42c0-3.6-.89-12.54-4.24-17.63s-5.86-9.21-12.66-11.62-10.26-.54-10.26-.54S57,33.2,59,40.94Z"/><path class="cls-3" d="M33.37,55.68a2.65,2.65,0,0,0,.15,2.62c.49.79,1,0,1-.46,0-.73-.73-.73-.72-1.4C33.84,55.92,33.68,55.05,33.37,55.68Z"/><path class="cls-3" d="M41.27,57c0,3-3.44,5.09-7.15,5.09s-5.25-2.77-5.25-5.8a5.59,5.59,0,0,1,5.8-5.8A6.92,6.92,0,0,1,41.27,57Z"/><path class="cls-3" d="M66.72,56.47c1,2.85,5,3.62,8.45,2.36s4-4.38,3-7.23a5.58,5.58,0,0,0-7.41-3.49A6.9,6.9,0,0,0,66.72,56.47Z"/><circle class="cls-4" cx="71.48" cy="53.97" r="3.44"/><ellipse class="cls-3" cx="71.84" cy="52.16" rx="1.46" ry="1.25"/><path class="cls-5" d="M74.17,52.5a2.65,2.65,0,0,1,.22,2.61c-.37.85-1,.11-1.09-.31-.1-.73.62-.83.52-1.49S73.78,51.91,74.17,52.5Z"/><circle class="cls-4" cx="35.93" cy="56.76" r="3.44"/><ellipse class="cls-3" cx="35.58" cy="54.95" rx="1.46" ry="1.25"/><path class="cls-5" d="M33.25,55.29a2.6,2.6,0,0,0-.22,2.6c.37.85,1,.12,1.09-.3.1-.73-.62-.83-.52-1.49S33.64,54.7,33.25,55.29Z"/><path class="cls-2" d="M46.42,61.13S48.35,59.4,53.78,59c5.93-.39,7.63.87,7.63.87s1.87,1.11.78,2.53a62.11,62.11,0,0,1-5.58,5.79c-.22.22-1.74,1.49-4,0s-5.39-4.16-6.14-4.74A1.49,1.49,0,0,1,46.42,61.13Z"/><path class="cls-2" d="M44,72.75c.93,0,4.78,1.91,9.64,1.35,2.45-.28,6.85-3.32,7.44-3.67s1.74,0,0,2.16A10.43,10.43,0,0,1,53,76.93c-4.26.3-7.38-1.16-8.31-2.32S44,72.75,44,72.75Z"/><ellipse class="cls-6" cx="54.44" cy="60.57" rx="2.9" ry="0.72" transform="translate(-2.67 2.52) rotate(-2.58)"/><path class="cls-7" d="M77,37.7c-3.7.17-7.88,2-11.27,2.17L40.08,41c-3.39.15-7.72-1.3-11.42-1.13-7.58.34-16.92,2.63-16.87,3.53,1,16.93,6.59,20.14,6.59,20.14a12.36,12.36,0,0,0,9.09,3.24l5.86-.27a12.41,12.41,0,0,0,11.72-10A44.07,44.07,0,0,0,46.16,48c.5-.84,1.94-3.79,6.71-4a8,8,0,0,1,7.44,3.58,42.83,42.83,0,0,0,1.85,8.24,12.42,12.42,0,0,0,12.58,8.85l5.86-.27a12.35,12.35,0,0,0,8.76-4s5.31-3.77,4.72-20.71C94.05,38.77,84.54,37.35,77,37.7Z"/><path class="cls-8" d="M14.71,44.72s7.68-3.08,11.52-2.6,15.56,1,16.24,3.37.48,14-4,17.19-14.79,1.06-14.79,1.06S13.46,58.84,14.71,44.72Z"/><path class="cls-9" d="M90.74,41.38S82.79,39.08,79,39.94s-15.4,2.49-15.83,4.94.91,14,5.71,16.71,14.82-.4,14.82-.4S93.37,55.31,90.74,41.38Z"/></g></g></svg>